<svg width="24" height="25" viewBox="0 0 24 25" fill="none" xmlns="http://www.w3.org/2000/svg">
<rect y="0.5" width="24" height="24" rx="12" fill="#B5BAC8"/>
<path fill-rule="evenodd" clip-rule="evenodd" d="M15.57 9.26005C15.57 7.07005 13.98 5.30005 12 5.30005C10.02 5.30005 8.43 7.07005 8.43 9.26005C8.43 11.45 10.02 13.22 12 13.22C13.98 13.22 15.57 11.45 15.57 9.26005ZM19.2 18.26V17.6C19.2 15.83 17.16 14.78 15.18 13.94L15 13.85C14.85 13.79 14.7 13.79 14.55 13.88C13.8 14.36 12.9 14.66 11.97 14.66C11.04 14.66 10.17 14.39 9.39 13.88C9.24 13.79 9.09 13.79 8.94 13.85L8.76 13.94C6.84 14.78 4.8 15.86 4.8 17.6V18.26C4.8 19.04 5.46 19.7 6.24 19.7H17.76C18.54 19.7 19.2 19.04 19.2 18.26Z" fill="white"/>
</svg>
