<svg width="16" height="17" viewBox="0 0 16 17" fill="none" xmlns="http://www.w3.org/2000/svg">
<path fill-rule="evenodd" clip-rule="evenodd" d="M10.7692 3.57715C10.2462 3.57715 9.75385 3.63869 9.29231 3.79253C9.84615 4.25407 10.3385 4.80792 10.7385 5.4233H10.7692C12.6462 5.4233 14.1538 6.93099 14.1538 8.80792C14.1538 10.6848 12.6462 12.1925 10.7692 12.1925C10.3077 12.1925 9.84615 12.1002 9.44615 11.9156C9.69231 11.5771 9.90769 11.2079 10.0615 10.8387C10.1231 10.6848 10.1846 10.5618 10.2154 10.4079C10.3692 9.91561 10.4615 9.36176 10.4615 8.80792C10.4615 5.91561 8.12308 3.57715 5.23077 3.57715C2.33846 3.57715 0 5.91561 0 8.80792C0 11.7002 2.33846 14.0387 5.23077 14.0387C5.75385 14.0387 6.24615 13.9771 6.70769 13.8233C6.15385 13.3618 5.66154 12.8079 5.26154 12.1925H5.23077C3.35385 12.1925 1.84615 10.6848 1.84615 8.80792C1.84615 6.93099 3.35385 5.4233 5.23077 5.4233C5.69231 5.4233 6.15385 5.51561 6.58462 5.70023C5.93846 6.56176 5.53846 7.63869 5.53846 8.80792C5.53846 11.7002 7.87692 14.0387 10.7692 14.0387C13.6615 14.0387 16 11.7002 16 8.80792C16 5.91561 13.6615 3.57715 10.7692 3.57715Z" fill="#1C8EFF"/>
</svg>
