<svg width="16" height="16" viewBox="0 0 16 16" fill="none" xmlns="http://www.w3.org/2000/svg">
<path fill-rule="evenodd" clip-rule="evenodd" d="M1.41541 4.01529L7.20002 0.722984C7.50772 0.538368 7.90772 0.538368 8.21541 0.722984L13.9693 4.01529C14.2154 4.13837 14.2154 4.44606 13.9693 4.56914L12.6154 5.33837C12.5231 5.39991 12.4 5.39991 12.3077 5.33837L8.80002 3.33837C8.46156 3.15375 8.09233 3.06145 7.69233 3.06145C7.29233 3.06145 6.9231 3.15375 6.58464 3.33837L3.07695 5.33837C2.98464 5.39991 2.86156 5.39991 2.76925 5.33837L1.41541 4.56914C1.16925 4.44606 1.16925 4.13837 1.41541 4.01529ZM1.41541 7.7076L7.20002 4.41529C7.50772 4.23068 7.90772 4.23068 8.21541 4.41529L13.9693 7.7076C14.2154 7.83068 14.2154 8.13837 13.9693 8.26144L12.6154 9.03067C12.5231 9.09221 12.4 9.09221 12.3077 9.03067L8.80002 7.03067C8.46156 6.84606 8.09233 6.75375 7.69233 6.75375C7.29233 6.75375 6.9231 6.84606 6.58464 7.03067L3.07695 9.03067C2.98464 9.09221 2.86156 9.09221 2.76925 9.03067L1.41541 8.26144C1.16925 8.13837 1.16925 7.83068 1.41541 7.7076ZM8.15387 8.1076L13.9385 11.3999C14.1846 11.523 14.1846 11.8307 13.9385 11.9538L8.15387 15.2461C7.84618 15.4307 7.44618 15.4307 7.13848 15.2461L1.35387 11.9538C1.10772 11.8307 1.10772 11.523 1.35387 11.3999L7.13848 8.1076C7.44618 7.95375 7.84618 7.95375 8.15387 8.1076Z" fill="#4BCA8D"/>
</svg>
