<svg width="16" height="10" viewBox="0 0 16 10" fill="none" xmlns="http://www.w3.org/2000/svg">
<path fill-rule="evenodd" clip-rule="evenodd" d="M13.8769 0.35376H2.12307C1.38461 0.35376 0.769226 0.969144 0.769226 1.70761V8.26145C0.769226 8.99992 1.38461 9.6153 2.12307 9.6153H13.8769C14.6154 9.6153 15.2308 8.99992 15.2308 8.26145V1.73838C15.2308 0.969144 14.6154 0.35376 13.8769 0.35376ZM3.6923 8.26145C3.6923 7.36914 2.98461 6.69222 2.12307 6.69222V3.30761C3.01538 3.30761 3.6923 2.59991 3.6923 1.73838H12.3077C12.3077 2.63068 13.0154 3.30761 13.8769 3.30761V6.69222C12.9846 6.69222 12.3077 7.39991 12.3077 8.26145H3.6923ZM8 7.12299C9.24051 7.12299 10.2461 6.11735 10.2461 4.87684C10.2461 3.63632 9.24051 2.63068 8 2.63068C6.75948 2.63068 5.75384 3.63632 5.75384 4.87684C5.75384 6.11735 6.75948 7.12299 8 7.12299Z" fill="#1C8EFF"/>
</svg>
