<svg width="16" height="17" viewBox="0 0 16 17" fill="none" xmlns="http://www.w3.org/2000/svg">
<path fill-rule="evenodd" clip-rule="evenodd" d="M7.99997 1.11548C3.93843 1.11548 0.615356 4.43856 0.615356 8.50009C0.615356 12.5616 3.93843 15.8847 7.99997 15.8847C12.0615 15.8847 15.3846 12.5616 15.3846 8.50009C15.3846 4.43856 12.0615 1.11548 7.99997 1.11548ZM7.99997 13.9155C5.01536 13.9155 2.58459 11.4847 2.58459 8.50009C2.58459 5.51548 5.01536 3.08471 7.99997 3.08471C10.9846 3.08471 13.4154 5.51548 13.4154 8.50009C13.4154 11.4847 10.9846 13.9155 7.99997 13.9155ZM7.99997 11.9462C9.90323 11.9462 11.4461 10.4034 11.4461 8.50009C11.4461 6.59684 9.90323 5.05394 7.99997 5.05394C6.09671 5.05394 4.55382 6.59684 4.55382 8.50009C4.55382 10.4034 6.09671 11.9462 7.99997 11.9462Z" fill="#1C8EFF"/>
</svg>
