<svg width="16" height="17" viewBox="0 0 16 17" fill="none" xmlns="http://www.w3.org/2000/svg">
<path fill-rule="evenodd" clip-rule="evenodd" d="M11.8154 10.5001C11.3231 10.8078 10.8 10.8386 10.4308 10.9309C10.3077 10.9616 10.1231 10.9924 10.0615 10.9924C9.99999 11.0232 9.87691 11.1155 9.81538 11.177C9.53845 11.3616 9.19999 11.6693 8.73845 11.8232L11.6308 15.8847L12.3692 13.9155H14.3385L11.8154 10.5001ZM7.13845 11.7924L4.24614 15.8847L3.50768 13.9155H1.53845L4.06153 10.5001C4.55384 10.8078 5.07691 10.8386 5.44614 10.9309C5.56922 10.9616 5.72307 10.9924 5.78461 10.9924C5.84614 11.0232 5.96922 11.1155 6.03076 11.177C6.30768 11.3616 6.67691 11.6386 7.13845 11.7924ZM7.93845 4.06932C6.98461 4.06932 6.21537 4.83856 6.21537 5.7924C6.21537 6.74625 6.98461 7.51548 7.93845 7.51548C8.8923 7.51548 9.66153 6.74625 9.66153 5.7924C9.66153 4.83856 8.8923 4.06932 7.93845 4.06932ZM12.6154 5.7924C12.6154 6.37702 11.9692 6.83855 11.7538 7.36163C11.5385 7.91548 11.6615 8.68471 11.2308 9.08471C10.8308 9.48471 10.0615 9.3924 9.50768 9.60779C8.98461 9.82317 8.52307 10.4693 7.93845 10.4693C7.35384 10.4693 6.8923 9.82317 6.36922 9.60779C5.81538 9.3924 5.04614 9.51548 4.64614 9.08471C4.24614 8.68471 4.33845 7.91548 4.12307 7.36163C3.90768 6.83855 3.26153 6.37702 3.26153 5.7924C3.26153 5.20779 3.90768 4.74625 4.12307 4.22317C4.33845 3.66932 4.21538 2.90009 4.64614 2.50009C5.04614 2.10009 5.81538 2.1924 6.36922 1.97702C6.8923 1.76163 7.35384 1.11548 7.93845 1.11548C8.52307 1.11548 8.98461 1.76163 9.50768 1.97702C10.0615 2.1924 10.8308 2.06932 11.2308 2.50009C11.6308 2.90009 11.5385 3.66932 11.7538 4.22317C11.9692 4.74625 12.6154 5.20779 12.6154 5.7924ZM11.1385 5.7924C11.1385 4.00779 9.72307 2.5924 7.93845 2.5924C6.15384 2.5924 4.73845 4.00779 4.73845 5.7924C4.73845 7.57702 6.15384 8.9924 7.93845 8.9924C9.72307 8.9924 11.1385 7.57702 11.1385 5.7924Z" fill="#2D9CED"/>
</svg>
