<svg width="16" height="16" viewBox="0 0 16 16" fill="none" xmlns="http://www.w3.org/2000/svg">
<path fill-rule="evenodd" clip-rule="evenodd" d="M13.5384 5.90771C13.5384 5.23079 12.9846 4.67694 12.3077 4.67694H12.0923C11.9384 2.58463 10.1846 0.923096 8.03075 0.923096C5.8769 0.923096 4.15382 2.58463 3.96921 4.67694H3.69228C3.01536 4.67694 2.46151 5.23079 2.46151 5.90771L1.84613 13.6C1.84613 14.2769 2.39998 14.8308 3.0769 14.8308H12.9231C13.6 14.8308 14.1538 14.2769 14.1538 13.6L13.5384 5.90771ZM9.78459 8.36925H6.21536C5.69228 8.36925 5.29228 7.93848 5.29228 7.44617C5.29228 6.95387 5.72305 6.5231 6.21536 6.5231H9.81536C10.3384 6.5231 10.7384 6.95387 10.7384 7.44617C10.7384 7.93848 10.3077 8.36925 9.78459 8.36925ZM8.03075 2.76925C9.16921 2.76925 10.0923 3.60002 10.2461 4.67694H5.81536C5.99998 3.60002 6.92305 2.76925 8.03075 2.76925Z" fill="#F7A452"/>
</svg>
